<?xml version="1.0" encoding="UTF-8"?>
<svg width="250px" height="80px" viewBox="0 0 250 80" version="1.1" xmlns="http://www.w3.org/2000/svg" xmlns:xlink="http://www.w3.org/1999/xlink">
    <!-- Generator: Sketch 46.2 (44496) - http://www.bohemiancoding.com/sketch -->
    <title>click</title>
    <desc>Created with Sketch.</desc>
    <defs>
        <linearGradient x1="50%" y1="2.04310824%" x2="50%" y2="100.999999%" id="linearGradient-1">
            <stop stop-color="#3023AE" offset="0%"></stop>
            <stop stop-color="#C86DD7" offset="100%"></stop>
        </linearGradient>
        <rect id="path-2" x="0" y="0" width="250" height="80" rx="40"></rect>
        <filter x="-2.2%" y="-6.9%" width="104.4%" height="113.8%" filterUnits="objectBoundingBox" id="filter-3">
            <feMorphology radius="2" operator="erode" in="SourceAlpha" result="shadowSpreadInner1"></feMorphology>
            <feGaussianBlur stdDeviation="4.5" in="shadowSpreadInner1" result="shadowBlurInner1"></feGaussianBlur>
            <feOffset dx="0" dy="0" in="shadowBlurInner1" result="shadowOffsetInner1"></feOffset>
            <feComposite in="shadowOffsetInner1" in2="SourceAlpha" operator="arithmetic" k2="-1" k3="1" result="shadowInnerInner1"></feComposite>
            <feColorMatrix values="0 0 0 0 0   0 0 0 0 0   0 0 0 0 0  0 0 0 0.503226902 0" type="matrix" in="shadowInnerInner1"></feColorMatrix>
        </filter>
    </defs>
    <g id="clean" stroke="none" stroke-width="1" fill="none" fill-rule="evenodd">
        <g id="iPhone-7-Copy-8" transform="translate(-63.000000, -425.000000)">
            <g id="click" transform="translate(63.000000, 425.000000)">
                <g id="Rectangle-7">
                    <use fill="url(#linearGradient-1)" fill-rule="evenodd" xlink:href="#path-2"></use>
                    <use fill="black" fill-opacity="1" filter="url(#filter-3)" xlink:href="#path-2"></use>
                </g>
                <path d="M60.4174805,50 L50.925293,50 L50.925293,28.8623047 L60.168457,28.8623047 C64.2700195,28.8623047 66.7163086,30.8691406 66.7163086,34.1357422 C66.7163086,36.3769531 65.0610352,38.3251953 62.8930664,38.6474609 L62.8930664,38.9111328 C65.690918,39.1162109 67.7270508,41.2255859 67.7270508,43.9501953 C67.7270508,47.65625 64.9291992,50 60.4174805,50 Z M55.3491211,32.2460938 L55.3491211,37.6220703 L58.6743164,37.6220703 C61.0620117,37.6220703 62.3657227,36.640625 62.3657227,34.9414062 C62.3657227,33.2568359 61.1499023,32.2460938 59.0405273,32.2460938 L55.3491211,32.2460938 Z M55.3491211,46.6162109 L59.2895508,46.6162109 C61.8383789,46.6162109 63.215332,45.546875 63.215332,43.5693359 C63.215332,41.6357422 61.7944336,40.6103516 59.1870117,40.6103516 L55.3491211,40.6103516 L55.3491211,46.6162109 Z M72.4477539,50 L76.7104492,50 L76.7104492,27.6757812 L72.4477539,27.6757812 L72.4477539,50 Z M87.9643555,47.0410156 C89.9418945,47.0410156 91.4360352,45.78125 91.4360352,44.140625 L91.4360352,42.9541016 L88.1694336,43.1591797 C86.3383789,43.2910156 85.4448242,43.9501953 85.4448242,45.1074219 C85.4448242,46.3085938 86.4848633,47.0410156 87.9643555,47.0410156 Z M86.5581055,50.2490234 C83.4526367,50.2490234 81.2700195,48.3447266 81.2700195,45.3857422 C81.2700195,42.4560547 83.5112305,40.7568359 87.5249023,40.5224609 L91.4360352,40.2880859 L91.4360352,38.9697266 C91.4360352,37.6220703 90.4692383,36.8603516 88.7114258,36.8603516 C87.1733398,36.8603516 86.1479492,37.3876953 85.7963867,38.3544922 L81.8706055,38.3544922 C82.1489258,35.3662109 84.8881836,33.4912109 88.9458008,33.4912109 C93.2231445,33.4912109 95.6401367,35.5126953 95.6401367,38.9697266 L95.6401367,50 L91.5092773,50 L91.5092773,47.890625 L91.2456055,47.890625 C90.4106445,49.3701172 88.652832,50.2490234 86.5581055,50.2490234 Z M100.463379,38.5888672 C100.463379,41.0791016 101.986816,42.5732422 105.121582,43.2617188 L108.05127,43.9208984 C109.472168,44.2285156 110.087402,44.7119141 110.087402,45.5029297 C110.087402,46.5429688 108.944824,47.2314453 107.289551,47.2314453 C105.590332,47.2314453 104.550293,46.6015625 104.228027,45.5029297 L100.067871,45.5029297 C100.36084,48.6083984 102.938965,50.3515625 107.20166,50.3515625 C111.435059,50.3515625 114.320801,48.2421875 114.320801,45.0195312 C114.320801,42.6025391 112.914551,41.2841797 109.779785,40.5957031 L106.747559,39.9365234 C105.253418,39.5996094 104.564941,39.1162109 104.564941,38.3251953 C104.564941,37.2998047 105.692871,36.6113281 107.216309,36.6113281 C108.79834,36.6113281 109.779785,37.2558594 109.999512,38.2958984 L113.939941,38.2958984 C113.705566,35.2050781 111.288574,33.4912109 107.187012,33.4912109 C103.158691,33.4912109 100.463379,35.5273438 100.463379,38.5888672 Z M119.964355,30.0048828 L119.964355,34.0039062 L117.444824,34.0039062 L117.444824,37.3583984 L119.964355,37.3583984 L119.964355,45.6347656 C119.964355,48.7841797 121.51709,50.0585938 125.442871,50.0585938 C126.263184,50.0585938 127.054199,49.9707031 127.581543,49.8681641 L127.581543,46.6162109 C127.171387,46.6601562 126.878418,46.6748047 126.321777,46.6748047 C124.871582,46.6748047 124.227051,46.0302734 124.227051,44.6240234 L124.227051,37.3583984 L127.581543,37.3583984 L127.581543,34.0039062 L124.227051,34.0039062 L124.227051,30.0048828 L119.964355,30.0048828 Z M150.528809,28.3203125 C156.769043,28.3203125 160.680176,32.5830078 160.680176,39.4238281 C160.680176,46.2792969 156.783691,50.5419922 150.528809,50.5419922 C144.259277,50.5419922 140.348145,46.2792969 140.348145,39.4238281 C140.348145,32.5683594 144.317871,28.3203125 150.528809,28.3203125 Z M150.528809,32.2021484 C147.101074,32.2021484 144.874512,35 144.874512,39.4238281 C144.874512,43.8330078 147.057129,46.6601562 150.528809,46.6601562 C153.971191,46.6601562 156.168457,43.8330078 156.168457,39.4238281 C156.168457,35 153.971191,32.2021484 150.528809,32.2021484 Z M166.689941,50 L170.952637,50 L170.952637,37.3583984 L174.29248,37.3583984 L174.29248,34.0039062 L170.864746,34.0039062 L170.864746,32.8173828 C170.864746,31.4990234 171.538574,30.9130859 173.032715,30.9130859 C173.618652,30.9130859 174.145996,30.9716797 174.424316,31.0302734 L174.424316,27.96875 C173.794434,27.8662109 173.26709,27.8076172 172.432129,27.8076172 C168.638184,27.8076172 166.689941,29.1552734 166.689941,32.421875 L166.689941,34.0039062 L164.08252,34.0039062 L164.08252,37.3583984 L166.689941,37.3583984 L166.689941,50 Z M180.08252,50 L184.345215,50 L184.345215,37.3583984 L187.685059,37.3583984 L187.685059,34.0039062 L184.257324,34.0039062 L184.257324,32.8173828 C184.257324,31.4990234 184.931152,30.9130859 186.425293,30.9130859 C187.01123,30.9130859 187.538574,30.9716797 187.816895,31.0302734 L187.816895,27.96875 C187.187012,27.8662109 186.659668,27.8076172 185.824707,27.8076172 C182.030762,27.8076172 180.08252,29.1552734 180.08252,32.421875 L180.08252,34.0039062 L177.475098,34.0039062 L177.475098,37.3583984 L180.08252,37.3583984 L180.08252,50 Z M192.947754,28.8623047 L193.328613,43.0419922 L197.239746,43.0419922 L197.635254,28.8623047 L192.947754,28.8623047 Z M192.625488,47.9492188 C192.625488,49.4873047 193.650879,50.4394531 195.291504,50.4394531 C196.946777,50.4394531 197.95752,49.4873047 197.95752,47.9492188 C197.95752,46.3964844 196.946777,45.4443359 195.291504,45.4443359 C193.650879,45.4443359 192.625488,46.3964844 192.625488,47.9492188 Z" id="Blast-Off!" fill="#FFFFFF"></path>
            </g>
        </g>
    </g>
</svg>